<mxfile host="app.diagrams.net" modified="2023-09-05T13:33:44.200Z" agent="Mozilla/5.0 (Windows NT 10.0; Win64; x64) AppleWebKit/537.36 (KHTML, like Gecko) Chrome/116.0.0.0 Safari/537.36" etag="taZpSHyXyg-kC_44iC37" version="21.7.2" type="device" pages="5">
  <diagram id="C5RBs43oDa-KdzZeNtuy" name="Page-1">
    <mxGraphModel dx="1050" dy="581" grid="1" gridSize="10" guides="1" tooltips="1" connect="1" arrows="1" fold="1" page="1" pageScale="1" pageWidth="827" pageHeight="1169" math="0" shadow="0">
      <root>
        <mxCell id="WIyWlLk6GJQsqaUBKTNV-0" />
        <mxCell id="WIyWlLk6GJQsqaUBKTNV-1" parent="WIyWlLk6GJQsqaUBKTNV-0" />
        <mxCell id="G6CvmuWi-bwwlyRmXEFi-4" style="edgeStyle=orthogonalEdgeStyle;rounded=0;orthogonalLoop=1;jettySize=auto;html=1;exitX=0.5;exitY=1;exitDx=0;exitDy=0;entryX=0.5;entryY=0;entryDx=0;entryDy=0;labelBackgroundColor=#e0ffff;labelBorderColor=default;strokeColor=#69b4ff;" parent="WIyWlLk6GJQsqaUBKTNV-1" source="G6CvmuWi-bwwlyRmXEFi-7" target="G6CvmuWi-bwwlyRmXEFi-1" edge="1">
          <mxGeometry relative="1" as="geometry" />
        </mxCell>
        <mxCell id="G6CvmuWi-bwwlyRmXEFi-0" value="Start" style="rounded=1;whiteSpace=wrap;html=1;labelBackgroundColor=#e0ffff;fillColor=#e0ffff;" parent="WIyWlLk6GJQsqaUBKTNV-1" vertex="1">
          <mxGeometry x="10" y="10" width="120" height="40" as="geometry" />
        </mxCell>
        <mxCell id="G6CvmuWi-bwwlyRmXEFi-5" style="edgeStyle=orthogonalEdgeStyle;rounded=0;orthogonalLoop=1;jettySize=auto;html=1;exitX=0.5;exitY=1;exitDx=0;exitDy=0;entryX=0.5;entryY=0;entryDx=0;entryDy=0;labelBackgroundColor=#e0ffff;labelBorderColor=default;strokeColor=#69b4ff;" parent="WIyWlLk6GJQsqaUBKTNV-1" source="G6CvmuWi-bwwlyRmXEFi-1" target="G6CvmuWi-bwwlyRmXEFi-3" edge="1">
          <mxGeometry relative="1" as="geometry" />
        </mxCell>
        <mxCell id="G6CvmuWi-bwwlyRmXEFi-1" value="Login Page" style="rounded=0;whiteSpace=wrap;html=1;labelBackgroundColor=#e0ffff;fillColor=#e0ffff;" parent="WIyWlLk6GJQsqaUBKTNV-1" vertex="1">
          <mxGeometry x="10" y="170" width="120" height="40" as="geometry" />
        </mxCell>
        <mxCell id="G6CvmuWi-bwwlyRmXEFi-10" style="edgeStyle=orthogonalEdgeStyle;rounded=0;orthogonalLoop=1;jettySize=auto;html=1;exitX=1;exitY=0.5;exitDx=0;exitDy=0;entryX=0;entryY=0.5;entryDx=0;entryDy=0;labelBackgroundColor=#e0ffff;labelBorderColor=default;strokeColor=#69b4ff;" parent="WIyWlLk6GJQsqaUBKTNV-1" source="G6CvmuWi-bwwlyRmXEFi-2" target="G6CvmuWi-bwwlyRmXEFi-9" edge="1">
          <mxGeometry relative="1" as="geometry" />
        </mxCell>
        <mxCell id="G6CvmuWi-bwwlyRmXEFi-12" value="Incorrect&lt;br&gt;Credentials" style="edgeLabel;html=1;align=center;verticalAlign=middle;resizable=0;points=[];labelBackgroundColor=#e0ffff;labelBorderColor=none;" parent="G6CvmuWi-bwwlyRmXEFi-10" vertex="1" connectable="0">
          <mxGeometry x="-0.0358" y="-1" relative="1" as="geometry">
            <mxPoint as="offset" />
          </mxGeometry>
        </mxCell>
        <mxCell id="G6CvmuWi-bwwlyRmXEFi-14" value="" style="edgeStyle=orthogonalEdgeStyle;rounded=0;orthogonalLoop=1;jettySize=auto;html=1;labelBackgroundColor=#e0ffff;labelBorderColor=default;strokeColor=#69b4ff;" parent="WIyWlLk6GJQsqaUBKTNV-1" source="G6CvmuWi-bwwlyRmXEFi-2" edge="1">
          <mxGeometry relative="1" as="geometry">
            <mxPoint x="70" y="530" as="targetPoint" />
          </mxGeometry>
        </mxCell>
        <mxCell id="G6CvmuWi-bwwlyRmXEFi-15" value="Correct&lt;br&gt;Credentials" style="edgeLabel;html=1;align=center;verticalAlign=middle;resizable=0;points=[];labelBackgroundColor=#e0ffff;" parent="G6CvmuWi-bwwlyRmXEFi-14" vertex="1" connectable="0">
          <mxGeometry x="-0.15" y="-1" relative="1" as="geometry">
            <mxPoint as="offset" />
          </mxGeometry>
        </mxCell>
        <mxCell id="G6CvmuWi-bwwlyRmXEFi-2" value="Check&lt;br&gt;Credentials" style="rhombus;whiteSpace=wrap;html=1;labelBackgroundColor=#e0ffff;fillColor=#e0ffff;" parent="WIyWlLk6GJQsqaUBKTNV-1" vertex="1">
          <mxGeometry x="15" y="330" width="110" height="120" as="geometry" />
        </mxCell>
        <mxCell id="G6CvmuWi-bwwlyRmXEFi-6" style="edgeStyle=orthogonalEdgeStyle;rounded=0;orthogonalLoop=1;jettySize=auto;html=1;exitX=0.5;exitY=1;exitDx=0;exitDy=0;entryX=0.5;entryY=0;entryDx=0;entryDy=0;labelBackgroundColor=#e0ffff;labelBorderColor=default;strokeColor=#69b4ff;" parent="WIyWlLk6GJQsqaUBKTNV-1" source="G6CvmuWi-bwwlyRmXEFi-3" target="G6CvmuWi-bwwlyRmXEFi-2" edge="1">
          <mxGeometry relative="1" as="geometry">
            <mxPoint x="75" y="320" as="targetPoint" />
          </mxGeometry>
        </mxCell>
        <mxCell id="G6CvmuWi-bwwlyRmXEFi-3" value="username &amp;amp;&lt;br&gt;password" style="shape=parallelogram;perimeter=parallelogramPerimeter;whiteSpace=wrap;html=1;fixedSize=1;labelBackgroundColor=#e0ffff;fillColor=#e0ffff;" parent="WIyWlLk6GJQsqaUBKTNV-1" vertex="1">
          <mxGeometry x="10" y="250" width="120" height="40" as="geometry" />
        </mxCell>
        <mxCell id="G6CvmuWi-bwwlyRmXEFi-8" value="" style="edgeStyle=orthogonalEdgeStyle;rounded=0;orthogonalLoop=1;jettySize=auto;html=1;exitX=0.5;exitY=1;exitDx=0;exitDy=0;entryX=0.5;entryY=0;entryDx=0;entryDy=0;labelBackgroundColor=#e0ffff;strokeColor=#69b4ff;" parent="WIyWlLk6GJQsqaUBKTNV-1" source="G6CvmuWi-bwwlyRmXEFi-0" target="G6CvmuWi-bwwlyRmXEFi-7" edge="1">
          <mxGeometry relative="1" as="geometry">
            <mxPoint x="70" y="50" as="sourcePoint" />
            <mxPoint x="70" y="170" as="targetPoint" />
          </mxGeometry>
        </mxCell>
        <mxCell id="G6CvmuWi-bwwlyRmXEFi-7" value="A" style="ellipse;whiteSpace=wrap;html=1;aspect=fixed;labelBackgroundColor=#e0ffff;fillColor=#e0ffff;" parent="WIyWlLk6GJQsqaUBKTNV-1" vertex="1">
          <mxGeometry x="40" y="80" width="60" height="60" as="geometry" />
        </mxCell>
        <mxCell id="G6CvmuWi-bwwlyRmXEFi-9" value="A" style="ellipse;whiteSpace=wrap;html=1;aspect=fixed;labelBackgroundColor=#e0ffff;fillColor=#e0ffff;" parent="WIyWlLk6GJQsqaUBKTNV-1" vertex="1">
          <mxGeometry x="270" y="360" width="60" height="60" as="geometry" />
        </mxCell>
        <mxCell id="G6CvmuWi-bwwlyRmXEFi-16" value="B" style="ellipse;whiteSpace=wrap;html=1;labelBackgroundColor=#e0ffff;fillColor=#e0ffff;" parent="WIyWlLk6GJQsqaUBKTNV-1" vertex="1">
          <mxGeometry x="40" y="530" width="60" height="60" as="geometry" />
        </mxCell>
      </root>
    </mxGraphModel>
  </diagram>
  <diagram id="ifMP8OhlYyvHZI-WCEka" name="Page-2">
    <mxGraphModel dx="1050" dy="581" grid="1" gridSize="10" guides="1" tooltips="1" connect="1" arrows="1" fold="1" page="1" pageScale="1" pageWidth="1169" pageHeight="827" math="0" shadow="0">
      <root>
        <mxCell id="0" />
        <mxCell id="1" parent="0" />
        <mxCell id="2wUquN3tdta_xhvCHgYG-2" value="" style="edgeStyle=orthogonalEdgeStyle;rounded=0;orthogonalLoop=1;jettySize=auto;html=1;strokeColor=#69b4ff;" parent="1" source="XFiq86RddhupKnlUU-NT-1" target="2wUquN3tdta_xhvCHgYG-1" edge="1">
          <mxGeometry relative="1" as="geometry" />
        </mxCell>
        <mxCell id="XFiq86RddhupKnlUU-NT-1" value="B" style="ellipse;whiteSpace=wrap;html=1;fillColor=#e0ffff;" parent="1" vertex="1">
          <mxGeometry x="530" y="20" width="60" height="60" as="geometry" />
        </mxCell>
        <mxCell id="2wUquN3tdta_xhvCHgYG-1" value="Dashboard" style="whiteSpace=wrap;html=1;fillColor=#e0ffff;" parent="1" vertex="1">
          <mxGeometry x="480" y="160" width="160" height="50" as="geometry" />
        </mxCell>
        <mxCell id="2wUquN3tdta_xhvCHgYG-3" value="" style="endArrow=none;html=1;rounded=0;exitX=0.5;exitY=1;exitDx=0;exitDy=0;strokeColor=#69b4ff;" parent="1" source="2wUquN3tdta_xhvCHgYG-1" edge="1">
          <mxGeometry width="50" height="50" relative="1" as="geometry">
            <mxPoint x="590" y="410" as="sourcePoint" />
            <mxPoint x="560" y="280" as="targetPoint" />
          </mxGeometry>
        </mxCell>
        <mxCell id="2wUquN3tdta_xhvCHgYG-4" value="" style="endArrow=none;html=1;rounded=0;strokeColor=#69b4ff;" parent="1" edge="1">
          <mxGeometry width="50" height="50" relative="1" as="geometry">
            <mxPoint x="310" y="280" as="sourcePoint" />
            <mxPoint x="800" y="280" as="targetPoint" />
          </mxGeometry>
        </mxCell>
        <mxCell id="2wUquN3tdta_xhvCHgYG-5" value="" style="endArrow=classic;html=1;rounded=0;strokeColor=#69b4ff;" parent="1" edge="1">
          <mxGeometry width="50" height="50" relative="1" as="geometry">
            <mxPoint x="310" y="280" as="sourcePoint" />
            <mxPoint x="310" y="360" as="targetPoint" />
          </mxGeometry>
        </mxCell>
        <mxCell id="2wUquN3tdta_xhvCHgYG-6" value="" style="endArrow=classic;html=1;rounded=0;strokeColor=#69b4ff;" parent="1" edge="1">
          <mxGeometry width="50" height="50" relative="1" as="geometry">
            <mxPoint x="800" y="280" as="sourcePoint" />
            <mxPoint x="800" y="360" as="targetPoint" />
          </mxGeometry>
        </mxCell>
        <mxCell id="2wUquN3tdta_xhvCHgYG-7" value="" style="endArrow=classic;html=1;rounded=0;strokeColor=#69b4ff;" parent="1" edge="1">
          <mxGeometry width="50" height="50" relative="1" as="geometry">
            <mxPoint x="480" y="280" as="sourcePoint" />
            <mxPoint x="480" y="360" as="targetPoint" />
          </mxGeometry>
        </mxCell>
        <mxCell id="2wUquN3tdta_xhvCHgYG-8" value="" style="endArrow=classic;html=1;rounded=0;strokeColor=#69b4ff;" parent="1" edge="1">
          <mxGeometry width="50" height="50" relative="1" as="geometry">
            <mxPoint x="640" y="280" as="sourcePoint" />
            <mxPoint x="640" y="360" as="targetPoint" />
          </mxGeometry>
        </mxCell>
        <mxCell id="2wUquN3tdta_xhvCHgYG-18" style="edgeStyle=orthogonalEdgeStyle;rounded=0;orthogonalLoop=1;jettySize=auto;html=1;exitX=0.5;exitY=1;exitDx=0;exitDy=0;strokeColor=#69b4ff;" parent="1" source="2wUquN3tdta_xhvCHgYG-9" target="2wUquN3tdta_xhvCHgYG-17" edge="1">
          <mxGeometry relative="1" as="geometry" />
        </mxCell>
        <mxCell id="2wUquN3tdta_xhvCHgYG-9" value="Home" style="whiteSpace=wrap;html=1;fillColor=#e0ffff;" parent="1" vertex="1">
          <mxGeometry x="270" y="360" width="80" height="40" as="geometry" />
        </mxCell>
        <mxCell id="2wUquN3tdta_xhvCHgYG-19" style="edgeStyle=orthogonalEdgeStyle;rounded=0;orthogonalLoop=1;jettySize=auto;html=1;exitX=0.5;exitY=1;exitDx=0;exitDy=0;strokeColor=#69b4ff;" parent="1" source="2wUquN3tdta_xhvCHgYG-10" edge="1">
          <mxGeometry relative="1" as="geometry">
            <mxPoint x="480" y="480" as="targetPoint" />
          </mxGeometry>
        </mxCell>
        <mxCell id="2wUquN3tdta_xhvCHgYG-10" value="Employees" style="whiteSpace=wrap;html=1;fillColor=#e0ffff;" parent="1" vertex="1">
          <mxGeometry x="440" y="360" width="80" height="40" as="geometry" />
        </mxCell>
        <mxCell id="2wUquN3tdta_xhvCHgYG-16" style="edgeStyle=orthogonalEdgeStyle;rounded=0;orthogonalLoop=1;jettySize=auto;html=1;exitX=0.5;exitY=1;exitDx=0;exitDy=0;strokeColor=#69b4ff;" parent="1" source="2wUquN3tdta_xhvCHgYG-11" target="2wUquN3tdta_xhvCHgYG-15" edge="1">
          <mxGeometry relative="1" as="geometry" />
        </mxCell>
        <mxCell id="2wUquN3tdta_xhvCHgYG-11" value="Payslip" style="whiteSpace=wrap;html=1;fillColor=#e0ffff;" parent="1" vertex="1">
          <mxGeometry x="600" y="360" width="80" height="40" as="geometry" />
        </mxCell>
        <mxCell id="2wUquN3tdta_xhvCHgYG-14" value="" style="edgeStyle=orthogonalEdgeStyle;rounded=0;orthogonalLoop=1;jettySize=auto;html=1;strokeColor=#69b4ff;" parent="1" source="2wUquN3tdta_xhvCHgYG-12" target="2wUquN3tdta_xhvCHgYG-13" edge="1">
          <mxGeometry relative="1" as="geometry" />
        </mxCell>
        <mxCell id="2wUquN3tdta_xhvCHgYG-12" value="Logout" style="whiteSpace=wrap;html=1;fillColor=#e0ffff;" parent="1" vertex="1">
          <mxGeometry x="760" y="360" width="80" height="40" as="geometry" />
        </mxCell>
        <mxCell id="2wUquN3tdta_xhvCHgYG-13" value="A" style="ellipse;whiteSpace=wrap;html=1;fillColor=#e0ffff;" parent="1" vertex="1">
          <mxGeometry x="775" y="480" width="50" height="40" as="geometry" />
        </mxCell>
        <mxCell id="2wUquN3tdta_xhvCHgYG-15" value="Generated Payslip" style="rounded=1;whiteSpace=wrap;html=1;fillColor=#e0ffff;" parent="1" vertex="1">
          <mxGeometry x="580" y="480" width="120" height="40" as="geometry" />
        </mxCell>
        <mxCell id="2wUquN3tdta_xhvCHgYG-17" value="Details of net salary, working employees" style="rounded=1;whiteSpace=wrap;html=1;fillColor=#e0ffff;" parent="1" vertex="1">
          <mxGeometry x="250" y="480" width="120" height="40" as="geometry" />
        </mxCell>
        <mxCell id="2wUquN3tdta_xhvCHgYG-21" value="c" style="ellipse;whiteSpace=wrap;html=1;fillColor=#e0ffff;" parent="1" vertex="1">
          <mxGeometry x="455" y="480" width="50" height="40" as="geometry" />
        </mxCell>
      </root>
    </mxGraphModel>
  </diagram>
  <diagram id="RurTLzZ_G_kvnTXaHNDI" name="Page-3">
    <mxGraphModel dx="1050" dy="581" grid="1" gridSize="10" guides="1" tooltips="1" connect="1" arrows="1" fold="1" page="1" pageScale="1" pageWidth="1169" pageHeight="827" math="0" shadow="0">
      <root>
        <mxCell id="0" />
        <mxCell id="1" parent="0" />
        <mxCell id="VXVOD5ewRzHmcEYidMO0-1" value="c" style="ellipse;whiteSpace=wrap;html=1;fillColor=#e0ffff;" parent="1" vertex="1">
          <mxGeometry x="535" y="40" width="50" height="50" as="geometry" />
        </mxCell>
        <mxCell id="uk5dn8psNmTH5hG2G_QT-1" value="" style="endArrow=none;html=1;rounded=0;exitX=0.5;exitY=1;exitDx=0;exitDy=0;strokeColor=#69b4ff;" parent="1" edge="1">
          <mxGeometry width="50" height="50" relative="1" as="geometry">
            <mxPoint x="560" y="90" as="sourcePoint" />
            <mxPoint x="560" y="160" as="targetPoint" />
          </mxGeometry>
        </mxCell>
        <mxCell id="uk5dn8psNmTH5hG2G_QT-2" value="" style="endArrow=none;html=1;rounded=0;strokeColor=#69b4ff;" parent="1" edge="1">
          <mxGeometry width="50" height="50" relative="1" as="geometry">
            <mxPoint x="310" y="160" as="sourcePoint" />
            <mxPoint x="800" y="160" as="targetPoint" />
          </mxGeometry>
        </mxCell>
        <mxCell id="uk5dn8psNmTH5hG2G_QT-3" value="" style="endArrow=classic;html=1;rounded=0;strokeColor=#69b4ff;" parent="1" edge="1">
          <mxGeometry width="50" height="50" relative="1" as="geometry">
            <mxPoint x="310" y="160" as="sourcePoint" />
            <mxPoint x="310" y="240" as="targetPoint" />
          </mxGeometry>
        </mxCell>
        <mxCell id="uk5dn8psNmTH5hG2G_QT-4" value="" style="endArrow=classic;html=1;rounded=0;strokeColor=#69b4ff;" parent="1" edge="1">
          <mxGeometry width="50" height="50" relative="1" as="geometry">
            <mxPoint x="800" y="160" as="sourcePoint" />
            <mxPoint x="800" y="240" as="targetPoint" />
          </mxGeometry>
        </mxCell>
        <mxCell id="uk5dn8psNmTH5hG2G_QT-5" value="" style="endArrow=classic;html=1;rounded=0;strokeColor=#69b4ff;" parent="1" edge="1">
          <mxGeometry width="50" height="50" relative="1" as="geometry">
            <mxPoint x="480" y="160" as="sourcePoint" />
            <mxPoint x="480" y="240" as="targetPoint" />
          </mxGeometry>
        </mxCell>
        <mxCell id="uk5dn8psNmTH5hG2G_QT-6" value="" style="endArrow=classic;html=1;rounded=0;strokeColor=#69b4ff;" parent="1" edge="1">
          <mxGeometry width="50" height="50" relative="1" as="geometry">
            <mxPoint x="640" y="160" as="sourcePoint" />
            <mxPoint x="640" y="240" as="targetPoint" />
          </mxGeometry>
        </mxCell>
        <mxCell id="uk5dn8psNmTH5hG2G_QT-19" style="edgeStyle=orthogonalEdgeStyle;rounded=0;orthogonalLoop=1;jettySize=auto;html=1;exitX=0.5;exitY=1;exitDx=0;exitDy=0;entryX=0.5;entryY=0;entryDx=0;entryDy=0;strokeColor=#69b4ff;" parent="1" source="uk5dn8psNmTH5hG2G_QT-7" target="uk5dn8psNmTH5hG2G_QT-18" edge="1">
          <mxGeometry relative="1" as="geometry" />
        </mxCell>
        <mxCell id="uk5dn8psNmTH5hG2G_QT-7" value="ADD&lt;br&gt;Employee" style="whiteSpace=wrap;html=1;fillColor=#e0ffff;" parent="1" vertex="1">
          <mxGeometry x="270" y="240" width="80" height="40" as="geometry" />
        </mxCell>
        <mxCell id="uk5dn8psNmTH5hG2G_QT-8" value="ALL&lt;br&gt;Employee" style="whiteSpace=wrap;html=1;fillColor=#e0ffff;" parent="1" vertex="1">
          <mxGeometry x="440" y="240" width="80" height="40" as="geometry" />
        </mxCell>
        <mxCell id="uk5dn8psNmTH5hG2G_QT-9" value="Change&lt;br&gt;Details" style="whiteSpace=wrap;html=1;fillColor=#e0ffff;" parent="1" vertex="1">
          <mxGeometry x="600" y="240" width="80" height="40" as="geometry" />
        </mxCell>
        <mxCell id="uk5dn8psNmTH5hG2G_QT-10" value="Change&lt;br&gt;Status" style="whiteSpace=wrap;html=1;fillColor=#e0ffff;" parent="1" vertex="1">
          <mxGeometry x="760" y="240" width="80" height="40" as="geometry" />
        </mxCell>
        <mxCell id="uk5dn8psNmTH5hG2G_QT-18" value="Employee&lt;br&gt;Added&lt;br&gt;Successfully" style="rounded=1;whiteSpace=wrap;html=1;fillColor=#e0ffff;" parent="1" vertex="1">
          <mxGeometry x="270" y="320" width="80" height="60" as="geometry" />
        </mxCell>
        <mxCell id="uk5dn8psNmTH5hG2G_QT-20" style="edgeStyle=orthogonalEdgeStyle;rounded=0;orthogonalLoop=1;jettySize=auto;html=1;exitX=0.5;exitY=1;exitDx=0;exitDy=0;entryX=0.5;entryY=0;entryDx=0;entryDy=0;strokeColor=#69b4ff;" parent="1" target="uk5dn8psNmTH5hG2G_QT-21" edge="1">
          <mxGeometry relative="1" as="geometry">
            <mxPoint x="480" y="280" as="sourcePoint" />
          </mxGeometry>
        </mxCell>
        <mxCell id="uk5dn8psNmTH5hG2G_QT-21" value="All&lt;br&gt;Employees&lt;br&gt;Details" style="rounded=1;whiteSpace=wrap;html=1;fillColor=#e0ffff;" parent="1" vertex="1">
          <mxGeometry x="440" y="320" width="80" height="60" as="geometry" />
        </mxCell>
        <mxCell id="uk5dn8psNmTH5hG2G_QT-22" style="edgeStyle=orthogonalEdgeStyle;rounded=0;orthogonalLoop=1;jettySize=auto;html=1;exitX=0.5;exitY=1;exitDx=0;exitDy=0;entryX=0.5;entryY=0;entryDx=0;entryDy=0;strokeColor=#69b4ff;" parent="1" target="uk5dn8psNmTH5hG2G_QT-23" edge="1">
          <mxGeometry relative="1" as="geometry">
            <mxPoint x="640" y="280" as="sourcePoint" />
          </mxGeometry>
        </mxCell>
        <mxCell id="uk5dn8psNmTH5hG2G_QT-23" value="Employee&lt;br&gt;Detail changed&lt;br&gt;Successfully" style="rounded=1;whiteSpace=wrap;html=1;fillColor=#e0ffff;" parent="1" vertex="1">
          <mxGeometry x="600" y="320" width="80" height="60" as="geometry" />
        </mxCell>
        <mxCell id="uk5dn8psNmTH5hG2G_QT-24" style="edgeStyle=orthogonalEdgeStyle;rounded=0;orthogonalLoop=1;jettySize=auto;html=1;exitX=0.5;exitY=1;exitDx=0;exitDy=0;entryX=0.5;entryY=0;entryDx=0;entryDy=0;strokeColor=#69b4ff;" parent="1" target="uk5dn8psNmTH5hG2G_QT-25" edge="1">
          <mxGeometry relative="1" as="geometry">
            <mxPoint x="800" y="280" as="sourcePoint" />
          </mxGeometry>
        </mxCell>
        <mxCell id="uk5dn8psNmTH5hG2G_QT-25" value="Employee&lt;br style=&quot;border-color: var(--border-color);&quot;&gt;status&lt;br&gt;changed&lt;br style=&quot;border-color: var(--border-color);&quot;&gt;Successfully" style="rounded=1;whiteSpace=wrap;html=1;fillColor=#e0ffff;" parent="1" vertex="1">
          <mxGeometry x="760" y="320" width="80" height="60" as="geometry" />
        </mxCell>
      </root>
    </mxGraphModel>
  </diagram>
  <diagram id="uFNz6ROAWkAQlvzKGu9-" name="Page-4">
    <mxGraphModel dx="1235" dy="684" grid="1" gridSize="10" guides="1" tooltips="1" connect="1" arrows="1" fold="1" page="1" pageScale="1" pageWidth="1169" pageHeight="827" math="0" shadow="0">
      <root>
        <mxCell id="0" />
        <mxCell id="1" parent="0" />
        <mxCell id="7c-jQqvF5UVD6XwDttwj-1" style="edgeStyle=orthogonalEdgeStyle;rounded=0;orthogonalLoop=1;jettySize=auto;html=1;exitX=0.5;exitY=1;exitDx=0;exitDy=0;entryX=0.5;entryY=0;entryDx=0;entryDy=0;strokeColor=#69b4ff;" parent="1" source="7c-jQqvF5UVD6XwDttwj-13" target="7c-jQqvF5UVD6XwDttwj-4" edge="1">
          <mxGeometry relative="1" as="geometry" />
        </mxCell>
        <mxCell id="7c-jQqvF5UVD6XwDttwj-2" value="Start" style="rounded=1;whiteSpace=wrap;html=1;fillColor=#e0ffff;" parent="1" vertex="1">
          <mxGeometry x="490" y="40" width="120" height="40" as="geometry" />
        </mxCell>
        <mxCell id="7c-jQqvF5UVD6XwDttwj-3" style="edgeStyle=orthogonalEdgeStyle;rounded=0;orthogonalLoop=1;jettySize=auto;html=1;exitX=0.5;exitY=1;exitDx=0;exitDy=0;entryX=0.5;entryY=0;entryDx=0;entryDy=0;strokeColor=#69b4ff;" parent="1" source="7c-jQqvF5UVD6XwDttwj-4" target="7c-jQqvF5UVD6XwDttwj-11" edge="1">
          <mxGeometry relative="1" as="geometry" />
        </mxCell>
        <mxCell id="7c-jQqvF5UVD6XwDttwj-4" value="Login Page" style="rounded=0;whiteSpace=wrap;html=1;fillColor=#e0ffff;" parent="1" vertex="1">
          <mxGeometry x="490" y="200" width="120" height="40" as="geometry" />
        </mxCell>
        <mxCell id="7c-jQqvF5UVD6XwDttwj-5" style="edgeStyle=orthogonalEdgeStyle;rounded=0;orthogonalLoop=1;jettySize=auto;html=1;exitX=1;exitY=0.5;exitDx=0;exitDy=0;entryX=0;entryY=0.5;entryDx=0;entryDy=0;strokeColor=#69b4ff;" parent="1" source="7c-jQqvF5UVD6XwDttwj-9" target="7c-jQqvF5UVD6XwDttwj-14" edge="1">
          <mxGeometry relative="1" as="geometry" />
        </mxCell>
        <mxCell id="7c-jQqvF5UVD6XwDttwj-6" value="Incorrect&lt;br&gt;Credentials" style="edgeLabel;html=1;align=center;verticalAlign=middle;resizable=0;points=[];" parent="7c-jQqvF5UVD6XwDttwj-5" vertex="1" connectable="0">
          <mxGeometry x="-0.0358" y="-1" relative="1" as="geometry">
            <mxPoint as="offset" />
          </mxGeometry>
        </mxCell>
        <mxCell id="7c-jQqvF5UVD6XwDttwj-7" value="" style="edgeStyle=orthogonalEdgeStyle;rounded=0;orthogonalLoop=1;jettySize=auto;html=1;strokeColor=#69b4ff;" parent="1" source="7c-jQqvF5UVD6XwDttwj-9" edge="1">
          <mxGeometry relative="1" as="geometry">
            <mxPoint x="550" y="560" as="targetPoint" />
          </mxGeometry>
        </mxCell>
        <mxCell id="7c-jQqvF5UVD6XwDttwj-8" value="Correct&lt;br&gt;Credentials" style="edgeLabel;html=1;align=center;verticalAlign=middle;resizable=0;points=[];" parent="7c-jQqvF5UVD6XwDttwj-7" vertex="1" connectable="0">
          <mxGeometry x="-0.15" y="-1" relative="1" as="geometry">
            <mxPoint as="offset" />
          </mxGeometry>
        </mxCell>
        <mxCell id="7c-jQqvF5UVD6XwDttwj-9" value="Check&lt;br&gt;Credentials" style="rhombus;whiteSpace=wrap;html=1;fillColor=#e0ffff;" parent="1" vertex="1">
          <mxGeometry x="495" y="360" width="110" height="120" as="geometry" />
        </mxCell>
        <mxCell id="7c-jQqvF5UVD6XwDttwj-10" style="edgeStyle=orthogonalEdgeStyle;rounded=0;orthogonalLoop=1;jettySize=auto;html=1;exitX=0.5;exitY=1;exitDx=0;exitDy=0;entryX=0.5;entryY=0;entryDx=0;entryDy=0;strokeColor=#69b4ff;" parent="1" source="7c-jQqvF5UVD6XwDttwj-11" target="7c-jQqvF5UVD6XwDttwj-9" edge="1">
          <mxGeometry relative="1" as="geometry">
            <mxPoint x="555" y="350" as="targetPoint" />
          </mxGeometry>
        </mxCell>
        <mxCell id="7c-jQqvF5UVD6XwDttwj-11" value="username &amp;amp;&lt;br&gt;password" style="shape=parallelogram;perimeter=parallelogramPerimeter;whiteSpace=wrap;html=1;fixedSize=1;fillColor=#e0ffff;" parent="1" vertex="1">
          <mxGeometry x="490" y="280" width="120" height="40" as="geometry" />
        </mxCell>
        <mxCell id="7c-jQqvF5UVD6XwDttwj-12" value="" style="edgeStyle=orthogonalEdgeStyle;rounded=0;orthogonalLoop=1;jettySize=auto;html=1;exitX=0.5;exitY=1;exitDx=0;exitDy=0;entryX=0.5;entryY=0;entryDx=0;entryDy=0;strokeColor=#69b4ff;" parent="1" source="7c-jQqvF5UVD6XwDttwj-2" target="7c-jQqvF5UVD6XwDttwj-13" edge="1">
          <mxGeometry relative="1" as="geometry">
            <mxPoint x="550" y="80" as="sourcePoint" />
            <mxPoint x="550" y="200" as="targetPoint" />
          </mxGeometry>
        </mxCell>
        <mxCell id="7c-jQqvF5UVD6XwDttwj-13" value="A" style="ellipse;whiteSpace=wrap;html=1;aspect=fixed;fillColor=#e0ffff;" parent="1" vertex="1">
          <mxGeometry x="520" y="110" width="60" height="60" as="geometry" />
        </mxCell>
        <mxCell id="7c-jQqvF5UVD6XwDttwj-14" value="A" style="ellipse;whiteSpace=wrap;html=1;aspect=fixed;fillColor=#e0ffff;" parent="1" vertex="1">
          <mxGeometry x="680" y="390" width="60" height="60" as="geometry" />
        </mxCell>
        <mxCell id="7c-jQqvF5UVD6XwDttwj-15" value="B" style="ellipse;whiteSpace=wrap;html=1;fillColor=#e0ffff;" parent="1" vertex="1">
          <mxGeometry x="520" y="560" width="60" height="60" as="geometry" />
        </mxCell>
      </root>
    </mxGraphModel>
  </diagram>
  <diagram id="vboZGPjOJsfbY5YNllCb" name="Page-5">
    <mxGraphModel dx="1500" dy="830" grid="1" gridSize="10" guides="1" tooltips="1" connect="1" arrows="1" fold="1" page="1" pageScale="1" pageWidth="1169" pageHeight="827" math="0" shadow="0">
      <root>
        <mxCell id="0" />
        <mxCell id="1" parent="0" />
        <mxCell id="pgyqr__PJgx5ioMp2nLC-1" value="" style="edgeStyle=orthogonalEdgeStyle;rounded=0;orthogonalLoop=1;jettySize=auto;html=1;strokeColor=#69b4ff;" parent="1" source="pgyqr__PJgx5ioMp2nLC-2" target="pgyqr__PJgx5ioMp2nLC-3" edge="1">
          <mxGeometry relative="1" as="geometry" />
        </mxCell>
        <mxCell id="pgyqr__PJgx5ioMp2nLC-2" value="B" style="ellipse;whiteSpace=wrap;html=1;fillColor=#e0ffff;" parent="1" vertex="1">
          <mxGeometry x="530" y="20" width="60" height="60" as="geometry" />
        </mxCell>
        <mxCell id="pgyqr__PJgx5ioMp2nLC-3" value="Dashboard" style="whiteSpace=wrap;html=1;fillColor=#e0ffff;" parent="1" vertex="1">
          <mxGeometry x="480" y="160" width="160" height="50" as="geometry" />
        </mxCell>
        <mxCell id="pgyqr__PJgx5ioMp2nLC-4" value="" style="endArrow=none;html=1;rounded=0;exitX=0.5;exitY=1;exitDx=0;exitDy=0;strokeColor=#69b4ff;" parent="1" source="pgyqr__PJgx5ioMp2nLC-3" edge="1">
          <mxGeometry width="50" height="50" relative="1" as="geometry">
            <mxPoint x="590" y="410" as="sourcePoint" />
            <mxPoint x="560" y="280" as="targetPoint" />
          </mxGeometry>
        </mxCell>
        <mxCell id="pgyqr__PJgx5ioMp2nLC-5" value="" style="endArrow=none;html=1;rounded=0;strokeColor=#69b4ff;" parent="1" edge="1">
          <mxGeometry width="50" height="50" relative="1" as="geometry">
            <mxPoint x="310" y="280" as="sourcePoint" />
            <mxPoint x="800" y="280" as="targetPoint" />
          </mxGeometry>
        </mxCell>
        <mxCell id="pgyqr__PJgx5ioMp2nLC-6" value="" style="endArrow=classic;html=1;rounded=0;strokeColor=#69b4ff;" parent="1" edge="1">
          <mxGeometry width="50" height="50" relative="1" as="geometry">
            <mxPoint x="310" y="280" as="sourcePoint" />
            <mxPoint x="310" y="360" as="targetPoint" />
          </mxGeometry>
        </mxCell>
        <mxCell id="pgyqr__PJgx5ioMp2nLC-7" value="" style="endArrow=classic;html=1;rounded=0;strokeColor=#69b4ff;" parent="1" edge="1">
          <mxGeometry width="50" height="50" relative="1" as="geometry">
            <mxPoint x="800" y="280" as="sourcePoint" />
            <mxPoint x="800" y="360" as="targetPoint" />
          </mxGeometry>
        </mxCell>
        <mxCell id="pgyqr__PJgx5ioMp2nLC-8" value="" style="endArrow=classic;html=1;rounded=0;strokeColor=#69b4ff;" parent="1" edge="1">
          <mxGeometry width="50" height="50" relative="1" as="geometry">
            <mxPoint x="480" y="280" as="sourcePoint" />
            <mxPoint x="480" y="360" as="targetPoint" />
          </mxGeometry>
        </mxCell>
        <mxCell id="pgyqr__PJgx5ioMp2nLC-9" value="" style="endArrow=classic;html=1;rounded=0;strokeColor=#69b4ff;" parent="1" edge="1">
          <mxGeometry width="50" height="50" relative="1" as="geometry">
            <mxPoint x="640" y="280" as="sourcePoint" />
            <mxPoint x="640" y="360" as="targetPoint" />
          </mxGeometry>
        </mxCell>
        <mxCell id="pgyqr__PJgx5ioMp2nLC-10" style="edgeStyle=orthogonalEdgeStyle;rounded=0;orthogonalLoop=1;jettySize=auto;html=1;exitX=0.5;exitY=1;exitDx=0;exitDy=0;strokeColor=#69b4ff;" parent="1" source="pgyqr__PJgx5ioMp2nLC-11" target="pgyqr__PJgx5ioMp2nLC-20" edge="1">
          <mxGeometry relative="1" as="geometry" />
        </mxCell>
        <mxCell id="pgyqr__PJgx5ioMp2nLC-11" value="Profile" style="whiteSpace=wrap;html=1;fillColor=#e0ffff;" parent="1" vertex="1">
          <mxGeometry x="270" y="360" width="80" height="40" as="geometry" />
        </mxCell>
        <mxCell id="pgyqr__PJgx5ioMp2nLC-12" style="edgeStyle=orthogonalEdgeStyle;rounded=0;orthogonalLoop=1;jettySize=auto;html=1;exitX=0.5;exitY=1;exitDx=0;exitDy=0;strokeColor=#69b4ff;" parent="1" source="pgyqr__PJgx5ioMp2nLC-13" edge="1">
          <mxGeometry relative="1" as="geometry">
            <mxPoint x="480" y="480" as="targetPoint" />
          </mxGeometry>
        </mxCell>
        <mxCell id="pgyqr__PJgx5ioMp2nLC-13" value="Change&lt;br&gt;Details" style="whiteSpace=wrap;html=1;fillColor=#e0ffff;" parent="1" vertex="1">
          <mxGeometry x="440" y="360" width="80" height="40" as="geometry" />
        </mxCell>
        <mxCell id="pgyqr__PJgx5ioMp2nLC-14" style="edgeStyle=orthogonalEdgeStyle;rounded=0;orthogonalLoop=1;jettySize=auto;html=1;exitX=0.5;exitY=1;exitDx=0;exitDy=0;strokeColor=#69b4ff;" parent="1" source="pgyqr__PJgx5ioMp2nLC-15" target="pgyqr__PJgx5ioMp2nLC-19" edge="1">
          <mxGeometry relative="1" as="geometry" />
        </mxCell>
        <mxCell id="pgyqr__PJgx5ioMp2nLC-15" value="Payslip" style="whiteSpace=wrap;html=1;fillColor=#e0ffff;" parent="1" vertex="1">
          <mxGeometry x="600" y="360" width="80" height="40" as="geometry" />
        </mxCell>
        <mxCell id="pgyqr__PJgx5ioMp2nLC-16" value="" style="edgeStyle=orthogonalEdgeStyle;rounded=0;orthogonalLoop=1;jettySize=auto;html=1;strokeColor=#69b4ff;" parent="1" source="pgyqr__PJgx5ioMp2nLC-17" target="pgyqr__PJgx5ioMp2nLC-18" edge="1">
          <mxGeometry relative="1" as="geometry" />
        </mxCell>
        <mxCell id="pgyqr__PJgx5ioMp2nLC-17" value="Logout" style="whiteSpace=wrap;html=1;fillColor=#e0ffff;" parent="1" vertex="1">
          <mxGeometry x="760" y="360" width="80" height="40" as="geometry" />
        </mxCell>
        <mxCell id="pgyqr__PJgx5ioMp2nLC-18" value="A" style="ellipse;whiteSpace=wrap;html=1;fillColor=#e0ffff;" parent="1" vertex="1">
          <mxGeometry x="775" y="480" width="50" height="40" as="geometry" />
        </mxCell>
        <mxCell id="pgyqr__PJgx5ioMp2nLC-19" value="Generated Payslip" style="rounded=1;whiteSpace=wrap;html=1;fillColor=#e0ffff;" parent="1" vertex="1">
          <mxGeometry x="580" y="480" width="120" height="40" as="geometry" />
        </mxCell>
        <mxCell id="pgyqr__PJgx5ioMp2nLC-20" value="Employee&#39;s Details" style="rounded=1;whiteSpace=wrap;html=1;fillColor=#e0ffff;" parent="1" vertex="1">
          <mxGeometry x="250" y="480" width="120" height="40" as="geometry" />
        </mxCell>
        <mxCell id="pgyqr__PJgx5ioMp2nLC-24" value="" style="edgeStyle=orthogonalEdgeStyle;rounded=0;orthogonalLoop=1;jettySize=auto;html=1;entryX=0.5;entryY=0;entryDx=0;entryDy=0;strokeColor=#69b4ff;" parent="1" source="pgyqr__PJgx5ioMp2nLC-22" target="pgyqr__PJgx5ioMp2nLC-27" edge="1">
          <mxGeometry relative="1" as="geometry">
            <mxPoint x="480" y="605" as="targetPoint" />
          </mxGeometry>
        </mxCell>
        <mxCell id="pgyqr__PJgx5ioMp2nLC-22" value="new details" style="shape=parallelogram;perimeter=parallelogramPerimeter;whiteSpace=wrap;html=1;fixedSize=1;fillColor=#e0ffff;" parent="1" vertex="1">
          <mxGeometry x="415" y="480" width="130" height="50" as="geometry" />
        </mxCell>
        <mxCell id="pgyqr__PJgx5ioMp2nLC-27" value="Detail Updated&lt;br&gt;Successfully" style="rounded=1;whiteSpace=wrap;html=1;fillColor=#e0ffff;" parent="1" vertex="1">
          <mxGeometry x="420" y="600" width="120" height="40" as="geometry" />
        </mxCell>
      </root>
    </mxGraphModel>
  </diagram>
</mxfile>
